<svg width="351" height="24" viewBox="0 0 351 24" fill="none" xmlns="http://www.w3.org/2000/svg">
<g clip-path="url(#clip0_726_6552)">
<path d="M0 23.9983H1.44203V0H0V23.9983ZM2.98033 23.9983H7.40239V0H2.98033V23.9983ZM8.84471 0V23.9974H13.2668V0H8.84471Z" fill="#990000"/>
<path d="M35.5775 24H37.0198V0H35.5775V24ZM38.5582 0V24H40.0002V0H38.5582ZM14.7539 24H16.1959V2.92969e-06H14.7539V24ZM17.7345 2.92969e-06V23.9991H19.1769V2.92969e-06H17.7345Z" fill="#339966"/>
<path d="M20.6672 24H25.0898V0H20.6672V24ZM26.5316 24H28.0696V0H26.5316V24ZM29.5119 0V23.9991H33.934V0H29.5119Z" fill="#006699"/>
</g>
<path d="M149.655 4L156 19.7965H152.172L150.995 16.6756H144.599L143.534 19.7965H139.757L145.52 4H149.655ZM149.941 13.9166L147.638 7.77668L145.54 13.9166H149.941ZM141.63 4V6.8947H136.452V19.7965H132.89V6.8947H127.711V4H141.63ZM123.208 4L129.553 19.7965H125.725L124.548 16.6756H118.152L117.087 19.7965H113.311L119.073 4H123.208ZM123.494 13.9166L121.191 7.77668L119.093 13.9166H123.494ZM99.1458 4H105.45C107.886 4.00002 109.81 4.73877 111.223 6.21625C112.642 7.68623 113.352 9.58965 113.352 11.9265C113.352 14.3764 112.632 16.3025 111.192 17.7046C109.759 19.0992 107.712 19.7965 105.051 19.7965H99.1458V4ZM102.707 6.8947V16.9018H105.031C106.539 16.9018 107.692 16.4457 108.49 15.5336C109.288 14.6139 109.687 13.404 109.687 11.9039C109.687 10.351 109.281 9.12981 108.47 8.24028C107.664 7.34324 106.504 6.89471 104.99 6.8947H102.707ZM95.8498 4V19.7965H92.288V4H95.8498ZM89.105 4L84.4481 11.4177L90.763 19.7965H86.3006L80.6408 12.3901V19.7965H77.079V4H80.6408V11.1124L85.185 4H89.105ZM73.7834 4V19.7965H70.2217V4H73.7834ZM56.2409 9.69894L51.8194 20H50.2842L44 4H47.7766L51.1439 12.7293L54.8182 4H57.684L61.3583 12.7293L64.7051 4H68.4818L62.218 20H60.6828L56.2409 9.69894Z" fill="#484848"/>
<path d="M169.284 20.22C168.081 20.22 166.974 20.022 165.962 19.626C164.95 19.23 164.07 18.68 163.322 17.976C162.574 17.2573 161.994 16.4213 161.584 15.468C161.173 14.5 160.968 13.444 160.968 12.3C160.968 11.156 161.173 10.1073 161.584 9.154C161.994 8.186 162.574 7.35 163.322 6.646C164.07 5.92733 164.95 5.37 165.962 4.974C166.974 4.578 168.074 4.38 169.262 4.38C170.464 4.38 171.564 4.578 172.562 4.974C173.574 5.37 174.454 5.92 175.202 6.624C175.95 7.328 176.529 8.164 176.94 9.132C177.35 10.1 177.556 11.156 177.556 12.3C177.556 13.444 177.35 14.5 176.94 15.468C176.529 16.436 175.95 17.272 175.202 17.976C174.454 18.68 173.574 19.23 172.562 19.626C171.564 20.022 170.472 20.22 169.284 20.22ZM174.3 23.366C173.757 23.366 173.229 23.3 172.716 23.168C172.217 23.0507 171.718 22.8453 171.22 22.552C170.736 22.2733 170.23 21.8993 169.702 21.43C169.174 20.9753 168.594 20.4107 167.964 19.736L171 18.944C171.41 19.4867 171.799 19.9193 172.166 20.242C172.547 20.5793 172.914 20.8213 173.266 20.968C173.618 21.1147 173.984 21.188 174.366 21.188C175.378 21.188 176.258 20.7773 177.006 19.956L178.326 21.54C177.299 22.7573 175.957 23.366 174.3 23.366ZM169.262 17.712C170.039 17.712 170.758 17.58 171.418 17.316C172.078 17.052 172.65 16.678 173.134 16.194C173.618 15.6953 173.992 15.116 174.256 14.456C174.534 13.796 174.674 13.0773 174.674 12.3C174.674 11.508 174.534 10.7893 174.256 10.144C173.992 9.484 173.618 8.912 173.134 8.428C172.65 7.92933 172.078 7.548 171.418 7.284C170.758 7.02 170.039 6.888 169.262 6.888C168.484 6.888 167.766 7.02 167.106 7.284C166.446 7.548 165.874 7.92933 165.39 8.428C164.906 8.912 164.524 9.484 164.246 10.144C163.982 10.7893 163.85 11.508 163.85 12.3C163.85 13.0773 163.982 13.796 164.246 14.456C164.524 15.116 164.906 15.6953 165.39 16.194C165.874 16.678 166.446 17.052 167.106 17.316C167.766 17.58 168.484 17.712 169.262 17.712ZM187.209 20.22C185.097 20.22 183.44 19.626 182.237 18.438C181.049 17.25 180.455 15.534 180.455 13.29V4.6H183.315V13.18C183.315 14.764 183.653 15.9153 184.327 16.634C185.017 17.3527 185.985 17.712 187.231 17.712C188.478 17.712 189.439 17.3527 190.113 16.634C190.788 15.9153 191.125 14.764 191.125 13.18V4.6H193.941V13.29C193.941 15.534 193.34 17.25 192.137 18.438C190.949 19.626 189.307 20.22 187.209 20.22ZM200.587 11.002H208.243V13.356H200.587V11.002ZM200.807 17.602H209.497V20H197.947V4.6H209.189V6.998H200.807V17.602ZM212.685 20V4.6H219.021C220.385 4.6 221.551 4.82 222.519 5.26C223.502 5.7 224.257 6.33067 224.785 7.152C225.313 7.97333 225.577 8.94867 225.577 10.078C225.577 11.2073 225.313 12.1827 224.785 13.004C224.257 13.8107 223.502 14.434 222.519 14.874C221.551 15.2993 220.385 15.512 219.021 15.512H214.269L215.545 14.214V20H212.685ZM222.761 20L218.867 14.412H221.925L225.841 20H222.761ZM215.545 14.522L214.269 13.158H218.889C220.15 13.158 221.096 12.8867 221.727 12.344C222.372 11.8013 222.695 11.046 222.695 10.078C222.695 9.09533 222.372 8.34 221.727 7.812C221.096 7.284 220.15 7.02 218.889 7.02H214.269L215.545 5.612V14.522ZM232.346 20V13.906L232.984 15.666L226.296 4.6H229.354L234.722 13.51H233.006L238.418 4.6H241.234L234.546 15.666L235.206 13.906V20H232.346ZM249.187 20V4.6H256.403C258.251 4.6 259.659 4.96667 260.627 5.7C261.595 6.41867 262.079 7.38667 262.079 8.604C262.079 9.42533 261.888 10.1293 261.507 10.716C261.126 11.288 260.612 11.7353 259.967 12.058C259.336 12.366 258.647 12.52 257.899 12.52L258.295 11.728C259.16 11.728 259.938 11.8893 260.627 12.212C261.316 12.52 261.859 12.9747 262.255 13.576C262.666 14.1773 262.871 14.9253 262.871 15.82C262.871 17.14 262.365 18.1667 261.353 18.9C260.341 19.6333 258.838 20 256.843 20H249.187ZM252.047 17.756H256.667C257.738 17.756 258.559 17.58 259.131 17.228C259.703 16.876 259.989 16.3113 259.989 15.534C259.989 14.7713 259.703 14.214 259.131 13.862C258.559 13.4953 257.738 13.312 256.667 13.312H251.827V11.09H256.095C257.092 11.09 257.855 10.914 258.383 10.562C258.926 10.21 259.197 9.682 259.197 8.978C259.197 8.25933 258.926 7.724 258.383 7.372C257.855 7.02 257.092 6.844 256.095 6.844H252.047V17.756ZM272.545 20.22C270.433 20.22 268.776 19.626 267.573 18.438C266.385 17.25 265.791 15.534 265.791 13.29V4.6H268.651V13.18C268.651 14.764 268.989 15.9153 269.663 16.634C270.353 17.3527 271.321 17.712 272.567 17.712C273.814 17.712 274.775 17.3527 275.449 16.634C276.124 15.9153 276.461 14.764 276.461 13.18V4.6H279.277V13.29C279.277 15.534 278.676 17.25 277.473 18.438C276.285 19.626 274.643 20.22 272.545 20.22ZM283.283 20V4.6H286.143V20H283.283ZM290.308 20V4.6H293.168V17.58H301.22V20H290.308ZM303.478 20V4.6H310.21C311.882 4.6 313.349 4.92267 314.61 5.568C315.871 6.21333 316.854 7.108 317.558 8.252C318.262 9.396 318.614 10.7453 318.614 12.3C318.614 13.84 318.262 15.1893 317.558 16.348C316.854 17.492 315.871 18.3867 314.61 19.032C313.349 19.6773 311.882 20 310.21 20H303.478ZM306.338 17.58H310.078C311.237 17.58 312.234 17.36 313.07 16.92C313.921 16.48 314.573 15.864 315.028 15.072C315.497 14.28 315.732 13.356 315.732 12.3C315.732 11.2293 315.497 10.3053 315.028 9.528C314.573 8.736 313.921 8.12 313.07 7.68C312.234 7.24 311.237 7.02 310.078 7.02H306.338V17.58ZM324.294 11.002H331.95V13.356H324.294V11.002ZM324.514 17.602H333.204V20H321.654V4.6H332.896V6.998H324.514V17.602ZM336.392 20V4.6H342.728C344.092 4.6 345.258 4.82 346.226 5.26C347.209 5.7 347.964 6.33067 348.492 7.152C349.02 7.97333 349.284 8.94867 349.284 10.078C349.284 11.2073 349.02 12.1827 348.492 13.004C347.964 13.8107 347.209 14.434 346.226 14.874C345.258 15.2993 344.092 15.512 342.728 15.512H337.976L339.252 14.214V20H336.392ZM346.468 20L342.574 14.412H345.632L349.548 20H346.468ZM339.252 14.522L337.976 13.158H342.596C343.857 13.158 344.803 12.8867 345.434 12.344C346.079 11.8013 346.402 11.046 346.402 10.078C346.402 9.09533 346.079 8.34 345.434 7.812C344.803 7.284 343.857 7.02 342.596 7.02H337.976L339.252 5.612V14.522Z" fill="#484848"/>
<defs>
<clipPath id="clip0_726_6552">
<rect width="40" height="24" fill="white"/>
</clipPath>
</defs>
</svg>
