<svg width="239" height="24" viewBox="0 0 239 24" fill="none" xmlns="http://www.w3.org/2000/svg">
<g clip-path="url(#clip0_726_6543)">
<path d="M0 23.9983H1.44203V0H0V23.9983ZM2.98033 23.9983H7.40239V0H2.98033V23.9983ZM8.84471 0V23.9974H13.2668V0H8.84471Z" fill="#990000"/>
<path d="M35.5775 24H37.0198V0H35.5775V24ZM38.5582 0V24H40.0002V0H38.5582ZM14.7539 24H16.1959V2.92969e-06H14.7539V24ZM17.7345 2.92969e-06V23.9991H19.1769V2.92969e-06H17.7345Z" fill="#339966"/>
<path d="M20.6672 24H25.0898V0H20.6672V24ZM26.5316 24H28.0696V0H26.5316V24ZM29.5119 0V23.9991H33.934V0H29.5119Z" fill="#006699"/>
</g>
<path d="M57.284 20.22C56.0813 20.22 54.974 20.022 53.962 19.626C52.95 19.23 52.07 18.68 51.322 17.976C50.574 17.2573 49.9947 16.4213 49.584 15.468C49.1733 14.5 48.968 13.444 48.968 12.3C48.968 11.156 49.1733 10.1073 49.584 9.154C49.9947 8.186 50.574 7.35 51.322 6.646C52.07 5.92733 52.95 5.37 53.962 4.974C54.974 4.578 56.074 4.38 57.262 4.38C58.4647 4.38 59.5647 4.578 60.562 4.974C61.574 5.37 62.454 5.92 63.202 6.624C63.95 7.328 64.5293 8.164 64.94 9.132C65.3507 10.1 65.556 11.156 65.556 12.3C65.556 13.444 65.3507 14.5 64.94 15.468C64.5293 16.436 63.95 17.272 63.202 17.976C62.454 18.68 61.574 19.23 60.562 19.626C59.5647 20.022 58.472 20.22 57.284 20.22ZM62.3 23.366C61.7573 23.366 61.2293 23.3 60.716 23.168C60.2173 23.0507 59.7187 22.8453 59.22 22.552C58.736 22.2733 58.23 21.8993 57.702 21.43C57.174 20.9753 56.5947 20.4107 55.964 19.736L59 18.944C59.4107 19.4867 59.7993 19.9193 60.166 20.242C60.5473 20.5793 60.914 20.8213 61.266 20.968C61.618 21.1147 61.9847 21.188 62.366 21.188C63.378 21.188 64.258 20.7773 65.006 19.956L66.326 21.54C65.2993 22.7573 63.9573 23.366 62.3 23.366ZM57.262 17.712C58.0393 17.712 58.758 17.58 59.418 17.316C60.078 17.052 60.65 16.678 61.134 16.194C61.618 15.6953 61.992 15.116 62.256 14.456C62.5347 13.796 62.674 13.0773 62.674 12.3C62.674 11.508 62.5347 10.7893 62.256 10.144C61.992 9.484 61.618 8.912 61.134 8.428C60.65 7.92933 60.078 7.548 59.418 7.284C58.758 7.02 58.0393 6.888 57.262 6.888C56.4847 6.888 55.766 7.02 55.106 7.284C54.446 7.548 53.874 7.92933 53.39 8.428C52.906 8.912 52.5247 9.484 52.246 10.144C51.982 10.7893 51.85 11.508 51.85 12.3C51.85 13.0773 51.982 13.796 52.246 14.456C52.5247 15.116 52.906 15.6953 53.39 16.194C53.874 16.678 54.446 17.052 55.106 17.316C55.766 17.58 56.4847 17.712 57.262 17.712ZM75.2095 20.22C73.0975 20.22 71.4402 19.626 70.2375 18.438C69.0495 17.25 68.4555 15.534 68.4555 13.29V4.6H71.3155V13.18C71.3155 14.764 71.6529 15.9153 72.3275 16.634C73.0169 17.3527 73.9849 17.712 75.2315 17.712C76.4782 17.712 77.4389 17.3527 78.1135 16.634C78.7882 15.9153 79.1255 14.764 79.1255 13.18V4.6H81.9415V13.29C81.9415 15.534 81.3402 17.25 80.1375 18.438C78.9495 19.626 77.3069 20.22 75.2095 20.22ZM88.5869 11.002H96.2429V13.356H88.5869V11.002ZM88.8069 17.602H97.4969V20H85.9469V4.6H97.1889V6.998H88.8069V17.602ZM100.685 20V4.6H107.021C108.385 4.6 109.551 4.82 110.519 5.26C111.502 5.7 112.257 6.33067 112.785 7.152C113.313 7.97333 113.577 8.94867 113.577 10.078C113.577 11.2073 113.313 12.1827 112.785 13.004C112.257 13.8107 111.502 14.434 110.519 14.874C109.551 15.2993 108.385 15.512 107.021 15.512H102.269L103.545 14.214V20H100.685ZM110.761 20L106.867 14.412H109.925L113.841 20H110.761ZM103.545 14.522L102.269 13.158H106.889C108.151 13.158 109.097 12.8867 109.727 12.344C110.373 11.8013 110.695 11.046 110.695 10.078C110.695 9.09533 110.373 8.34 109.727 7.812C109.097 7.284 108.151 7.02 106.889 7.02H102.269L103.545 5.612V14.522ZM120.346 20V13.906L120.984 15.666L114.296 4.6H117.354L122.722 13.51H121.006L126.418 4.6H129.234L122.546 15.666L123.206 13.906V20H120.346ZM137.187 20V4.6H144.403C146.251 4.6 147.659 4.96667 148.627 5.7C149.595 6.41867 150.079 7.38667 150.079 8.604C150.079 9.42533 149.888 10.1293 149.507 10.716C149.126 11.288 148.612 11.7353 147.967 12.058C147.336 12.366 146.647 12.52 145.899 12.52L146.295 11.728C147.16 11.728 147.938 11.8893 148.627 12.212C149.316 12.52 149.859 12.9747 150.255 13.576C150.666 14.1773 150.871 14.9253 150.871 15.82C150.871 17.14 150.365 18.1667 149.353 18.9C148.341 19.6333 146.838 20 144.843 20H137.187ZM140.047 17.756H144.667C145.738 17.756 146.559 17.58 147.131 17.228C147.703 16.876 147.989 16.3113 147.989 15.534C147.989 14.7713 147.703 14.214 147.131 13.862C146.559 13.4953 145.738 13.312 144.667 13.312H139.827V11.09H144.095C145.092 11.09 145.855 10.914 146.383 10.562C146.926 10.21 147.197 9.682 147.197 8.978C147.197 8.25933 146.926 7.724 146.383 7.372C145.855 7.02 145.092 6.844 144.095 6.844H140.047V17.756ZM160.545 20.22C158.433 20.22 156.776 19.626 155.573 18.438C154.385 17.25 153.791 15.534 153.791 13.29V4.6H156.651V13.18C156.651 14.764 156.989 15.9153 157.663 16.634C158.353 17.3527 159.321 17.712 160.567 17.712C161.814 17.712 162.775 17.3527 163.449 16.634C164.124 15.9153 164.461 14.764 164.461 13.18V4.6H167.277V13.29C167.277 15.534 166.676 17.25 165.473 18.438C164.285 19.626 162.643 20.22 160.545 20.22ZM171.283 20V4.6H174.143V20H171.283ZM178.308 20V4.6H181.168V17.58H189.22V20H178.308ZM191.478 20V4.6H198.21C199.882 4.6 201.349 4.92267 202.61 5.568C203.871 6.21333 204.854 7.108 205.558 8.252C206.262 9.396 206.614 10.7453 206.614 12.3C206.614 13.84 206.262 15.1893 205.558 16.348C204.854 17.492 203.871 18.3867 202.61 19.032C201.349 19.6773 199.882 20 198.21 20H191.478ZM194.338 17.58H198.078C199.237 17.58 200.234 17.36 201.07 16.92C201.921 16.48 202.573 15.864 203.028 15.072C203.497 14.28 203.732 13.356 203.732 12.3C203.732 11.2293 203.497 10.3053 203.028 9.528C202.573 8.736 201.921 8.12 201.07 7.68C200.234 7.24 199.237 7.02 198.078 7.02H194.338V17.58ZM212.294 11.002H219.95V13.356H212.294V11.002ZM212.514 17.602H221.204V20H209.654V4.6H220.896V6.998H212.514V17.602ZM224.392 20V4.6H230.728C232.092 4.6 233.258 4.82 234.226 5.26C235.209 5.7 235.964 6.33067 236.492 7.152C237.02 7.97333 237.284 8.94867 237.284 10.078C237.284 11.2073 237.02 12.1827 236.492 13.004C235.964 13.8107 235.209 14.434 234.226 14.874C233.258 15.2993 232.092 15.512 230.728 15.512H225.976L227.252 14.214V20H224.392ZM234.468 20L230.574 14.412H233.632L237.548 20H234.468ZM227.252 14.522L225.976 13.158H230.596C231.858 13.158 232.804 12.8867 233.434 12.344C234.08 11.8013 234.402 11.046 234.402 10.078C234.402 9.09533 234.08 8.34 233.434 7.812C232.804 7.284 231.858 7.02 230.596 7.02H225.976L227.252 5.612V14.522Z" fill="#484848"/>
<defs>
<clipPath id="clip0_726_6543">
<rect width="40" height="24" fill="white"/>
</clipPath>
</defs>
</svg>
