<svg width="359" height="24" viewBox="0 0 359 24" fill="none" xmlns="http://www.w3.org/2000/svg">
<g clip-path="url(#clip0_726_6552)">
<path d="M0 23.9983H1.44203V0H0V23.9983ZM2.98033 23.9983H7.40239V0H2.98033V23.9983ZM8.84471 0V23.9974H13.2668V0H8.84471Z" fill="#990000"/>
<path d="M35.5775 24H37.0198V0H35.5775V24ZM38.5582 0V24H40.0002V0H38.5582ZM14.7539 24H16.1959V2.92969e-06H14.7539V24ZM17.7345 2.92969e-06V23.9991H19.1769V2.92969e-06H17.7345Z" fill="#339966"/>
<path d="M20.6672 24H25.0898V0H20.6672V24ZM26.5316 24H28.0696V0H26.5316V24ZM29.5119 0V23.9991H33.934V0H29.5119Z" fill="#006699"/>
</g>
<path d="M153.655 4L160 19.7965H156.172L154.995 16.6756H148.599L147.534 19.7965H143.757L149.52 4H153.655ZM153.941 13.9166L151.638 7.77668L149.54 13.9166H153.941ZM145.63 4V6.8947H140.452V19.7965H136.89V6.8947H131.711V4H145.63ZM127.208 4L133.553 19.7965H129.725L128.548 16.6756H122.152L121.087 19.7965H117.311L123.073 4H127.208ZM127.494 13.9166L125.191 7.77668L123.093 13.9166H127.494ZM103.146 4H109.45C111.886 4.00002 113.81 4.73877 115.223 6.21625C116.642 7.68623 117.352 9.58965 117.352 11.9265C117.352 14.3764 116.632 16.3025 115.192 17.7046C113.759 19.0992 111.712 19.7965 109.051 19.7965H103.146V4ZM106.707 6.8947V16.9018H109.031C110.539 16.9018 111.692 16.4457 112.49 15.5336C113.288 14.6139 113.687 13.404 113.687 11.9039C113.687 10.351 113.281 9.12981 112.47 8.24028C111.664 7.34324 110.504 6.89471 108.99 6.8947H106.707ZM99.8498 4V19.7965H96.288V4H99.8498ZM93.105 4L88.4481 11.4177L94.763 19.7965H90.3006L84.6408 12.3901V19.7965H81.079V4H84.6408V11.1124L89.185 4H93.105ZM77.7834 4V19.7965H74.2217V4H77.7834ZM60.2409 9.69894L55.8194 20H54.2842L48 4H51.7766L55.1439 12.7293L58.8182 4H61.684L65.3583 12.7293L68.7051 4H72.4818L66.218 20H64.6828L60.2409 9.69894Z" fill="#484848"/>
<path d="M177.284 20.22C176.081 20.22 174.974 20.022 173.962 19.626C172.95 19.23 172.07 18.68 171.322 17.976C170.574 17.2573 169.994 16.4213 169.584 15.468C169.173 14.5 168.968 13.444 168.968 12.3C168.968 11.156 169.173 10.1073 169.584 9.154C169.994 8.186 170.574 7.35 171.322 6.646C172.07 5.92733 172.95 5.37 173.962 4.974C174.974 4.578 176.074 4.38 177.262 4.38C178.464 4.38 179.564 4.578 180.562 4.974C181.574 5.37 182.454 5.92 183.202 6.624C183.95 7.328 184.529 8.164 184.94 9.132C185.35 10.1 185.556 11.156 185.556 12.3C185.556 13.444 185.35 14.5 184.94 15.468C184.529 16.436 183.95 17.272 183.202 17.976C182.454 18.68 181.574 19.23 180.562 19.626C179.564 20.022 178.472 20.22 177.284 20.22ZM182.3 23.366C181.757 23.366 181.229 23.3 180.716 23.168C180.217 23.0507 179.718 22.8453 179.22 22.552C178.736 22.2733 178.23 21.8993 177.702 21.43C177.174 20.9753 176.594 20.4107 175.964 19.736L179 18.944C179.41 19.4867 179.799 19.9193 180.166 20.242C180.547 20.5793 180.914 20.8213 181.266 20.968C181.618 21.1147 181.984 21.188 182.366 21.188C183.378 21.188 184.258 20.7773 185.006 19.956L186.326 21.54C185.299 22.7573 183.957 23.366 182.3 23.366ZM177.262 17.712C178.039 17.712 178.758 17.58 179.418 17.316C180.078 17.052 180.65 16.678 181.134 16.194C181.618 15.6953 181.992 15.116 182.256 14.456C182.534 13.796 182.674 13.0773 182.674 12.3C182.674 11.508 182.534 10.7893 182.256 10.144C181.992 9.484 181.618 8.912 181.134 8.428C180.65 7.92933 180.078 7.548 179.418 7.284C178.758 7.02 178.039 6.888 177.262 6.888C176.484 6.888 175.766 7.02 175.106 7.284C174.446 7.548 173.874 7.92933 173.39 8.428C172.906 8.912 172.524 9.484 172.246 10.144C171.982 10.7893 171.85 11.508 171.85 12.3C171.85 13.0773 171.982 13.796 172.246 14.456C172.524 15.116 172.906 15.6953 173.39 16.194C173.874 16.678 174.446 17.052 175.106 17.316C175.766 17.58 176.484 17.712 177.262 17.712ZM195.209 20.22C193.097 20.22 191.44 19.626 190.237 18.438C189.049 17.25 188.455 15.534 188.455 13.29V4.6H191.315V13.18C191.315 14.764 191.653 15.9153 192.327 16.634C193.017 17.3527 193.985 17.712 195.231 17.712C196.478 17.712 197.439 17.3527 198.113 16.634C198.788 15.9153 199.125 14.764 199.125 13.18V4.6H201.941V13.29C201.941 15.534 201.34 17.25 200.137 18.438C198.949 19.626 197.307 20.22 195.209 20.22ZM208.587 11.002H216.243V13.356H208.587V11.002ZM208.807 17.602H217.497V20H205.947V4.6H217.189V6.998H208.807V17.602ZM220.685 20V4.6H227.021C228.385 4.6 229.551 4.82 230.519 5.26C231.502 5.7 232.257 6.33067 232.785 7.152C233.313 7.97333 233.577 8.94867 233.577 10.078C233.577 11.2073 233.313 12.1827 232.785 13.004C232.257 13.8107 231.502 14.434 230.519 14.874C229.551 15.2993 228.385 15.512 227.021 15.512H222.269L223.545 14.214V20H220.685ZM230.761 20L226.867 14.412H229.925L233.841 20H230.761ZM223.545 14.522L222.269 13.158H226.889C228.15 13.158 229.096 12.8867 229.727 12.344C230.372 11.8013 230.695 11.046 230.695 10.078C230.695 9.09533 230.372 8.34 229.727 7.812C229.096 7.284 228.15 7.02 226.889 7.02H222.269L223.545 5.612V14.522ZM240.346 20V13.906L240.984 15.666L234.296 4.6H237.354L242.722 13.51H241.006L246.418 4.6H249.234L242.546 15.666L243.206 13.906V20H240.346ZM257.187 20V4.6H264.403C266.251 4.6 267.659 4.96667 268.627 5.7C269.595 6.41867 270.079 7.38667 270.079 8.604C270.079 9.42533 269.888 10.1293 269.507 10.716C269.126 11.288 268.612 11.7353 267.967 12.058C267.336 12.366 266.647 12.52 265.899 12.52L266.295 11.728C267.16 11.728 267.938 11.8893 268.627 12.212C269.316 12.52 269.859 12.9747 270.255 13.576C270.666 14.1773 270.871 14.9253 270.871 15.82C270.871 17.14 270.365 18.1667 269.353 18.9C268.341 19.6333 266.838 20 264.843 20H257.187ZM260.047 17.756H264.667C265.738 17.756 266.559 17.58 267.131 17.228C267.703 16.876 267.989 16.3113 267.989 15.534C267.989 14.7713 267.703 14.214 267.131 13.862C266.559 13.4953 265.738 13.312 264.667 13.312H259.827V11.09H264.095C265.092 11.09 265.855 10.914 266.383 10.562C266.926 10.21 267.197 9.682 267.197 8.978C267.197 8.25933 266.926 7.724 266.383 7.372C265.855 7.02 265.092 6.844 264.095 6.844H260.047V17.756ZM280.545 20.22C278.433 20.22 276.776 19.626 275.573 18.438C274.385 17.25 273.791 15.534 273.791 13.29V4.6H276.651V13.18C276.651 14.764 276.989 15.9153 277.663 16.634C278.353 17.3527 279.321 17.712 280.567 17.712C281.814 17.712 282.775 17.3527 283.449 16.634C284.124 15.9153 284.461 14.764 284.461 13.18V4.6H287.277V13.29C287.277 15.534 286.676 17.25 285.473 18.438C284.285 19.626 282.643 20.22 280.545 20.22ZM291.283 20V4.6H294.143V20H291.283ZM298.308 20V4.6H301.168V17.58H309.22V20H298.308ZM311.478 20V4.6H318.21C319.882 4.6 321.349 4.92267 322.61 5.568C323.871 6.21333 324.854 7.108 325.558 8.252C326.262 9.396 326.614 10.7453 326.614 12.3C326.614 13.84 326.262 15.1893 325.558 16.348C324.854 17.492 323.871 18.3867 322.61 19.032C321.349 19.6773 319.882 20 318.21 20H311.478ZM314.338 17.58H318.078C319.237 17.58 320.234 17.36 321.07 16.92C321.921 16.48 322.573 15.864 323.028 15.072C323.497 14.28 323.732 13.356 323.732 12.3C323.732 11.2293 323.497 10.3053 323.028 9.528C322.573 8.736 321.921 8.12 321.07 7.68C320.234 7.24 319.237 7.02 318.078 7.02H314.338V17.58ZM332.294 11.002H339.95V13.356H332.294V11.002ZM332.514 17.602H341.204V20H329.654V4.6H340.896V6.998H332.514V17.602ZM344.392 20V4.6H350.728C352.092 4.6 353.258 4.82 354.226 5.26C355.209 5.7 355.964 6.33067 356.492 7.152C357.02 7.97333 357.284 8.94867 357.284 10.078C357.284 11.2073 357.02 12.1827 356.492 13.004C355.964 13.8107 355.209 14.434 354.226 14.874C353.258 15.2993 352.092 15.512 350.728 15.512H345.976L347.252 14.214V20H344.392ZM354.468 20L350.574 14.412H353.632L357.548 20H354.468ZM347.252 14.522L345.976 13.158H350.596C351.857 13.158 352.803 12.8867 353.434 12.344C354.079 11.8013 354.402 11.046 354.402 10.078C354.402 9.09533 354.079 8.34 353.434 7.812C352.803 7.284 351.857 7.02 350.596 7.02H345.976L347.252 5.612V14.522Z" fill="#484848"/>
<defs>
<clipPath id="clip0_726_6552">
<rect width="40" height="24" fill="white"/>
</clipPath>
</defs>
</svg>